<?xml version="1.0" standalone="no"?>
<!DOCTYPE svg PUBLIC "-//W3C//DTD SVG 20010904//EN"
 "http://www.w3.org/TR/2001/REC-SVG-20010904/DTD/svg10.dtd">
<svg version="1.0" xmlns="http://www.w3.org/2000/svg"
 width="700.000000pt" height="700.000000pt" viewBox="0 0 700.000000 700.000000"
 preserveAspectRatio="xMidYMid meet">
<metadata>
Created by potrace 1.14, written by Peter Selinger 2001-2017
</metadata>
<g transform="translate(0.000000,700.000000) scale(0.100000,-0.100000)"
fill="#000000" stroke="none">
<path d="M881 6104 c-267 -39 -455 -124 -601 -273 -120 -122 -208 -297 -244
-487 -35 -187 -37 -329 -34 -2504 l3 -2135 775 0 775 0 5 1335 c5 1249 6 1338
23 1380 64 160 212 281 380 310 119 21 267 -14 337 -80 21 -19 173 -182 339
-362 166 -180 329 -348 364 -374 71 -54 195 -115 282 -139 33 -9 112 -19 176
-22 136 -7 242 11 358 59 152 63 198 104 537 472 174 187 331 355 349 371 38
35 134 71 212 81 196 24 411 -108 495 -307 l23 -54 5 -1335 5 -1335 775 0 775
0 3 2135 c2 1490 0 2179 -8 2280 -26 342 -107 549 -280 720 -133 130 -308 215
-530 255 -125 23 -466 32 -598 15 -285 -35 -527 -115 -717 -238 -151 -97 -262
-200 -585 -545 -212 -227 -281 -287 -390 -342 -298 -149 -634 -120 -901 76
-36 27 -158 147 -270 266 -322 345 -433 448 -584 545 -183 118 -403 194 -676
233 -130 18 -449 18 -578 -1z"/>
</g>
</svg>
